<svg width="501" height="324" viewBox="0 0 501 324" fill="none" xmlns="http://www.w3.org/2000/svg">
<g clip-path="url(#clip0)">
<path d="M81.3898 150.873C88.7239 150.873 94.6693 144.936 94.6693 137.612C94.6693 130.288 88.7239 124.351 81.3898 124.351C74.0557 124.351 68.1103 130.288 68.1103 137.612C68.1103 144.936 74.0557 150.873 81.3898 150.873Z" fill="#FFB8B8"/>
<path d="M36.5187 296.524L39.8812 302.229L63.5151 291.992L58.5523 283.573L36.5187 296.524Z" fill="#FFB8B8"/>
<path d="M37.5262 293.973L44.1481 305.208L44.1483 305.208C44.7025 306.148 45.0658 307.188 45.2175 308.268C45.3691 309.349 45.3062 310.449 45.0323 311.505C44.7584 312.561 44.2789 313.553 43.6211 314.424C42.9633 315.295 42.1402 316.028 41.1987 316.581L40.9657 316.718L30.1239 298.325L37.5262 293.973Z" fill="#2F2E41"/>
<path d="M75.4781 317.075L82.1067 317.075L85.2599 291.543L75.477 291.543L75.4781 317.075Z" fill="#FFB8B8"/>
<path d="M73.7874 314.914L86.8413 314.914H86.8419C87.9343 314.914 89.0161 315.129 90.0254 315.546C91.0348 315.964 91.9519 316.575 92.7244 317.347C93.4969 318.118 94.1096 319.034 94.5277 320.042C94.9458 321.05 95.1609 322.13 95.1609 323.221V323.491L73.7878 323.492L73.7874 314.914Z" fill="#2F2E41"/>
<path d="M48.8291 301.607C48.4476 301.607 48.0714 301.517 47.731 301.345C47.3906 301.174 47.0955 300.924 46.8697 300.617L40.4769 291.947C40.2819 291.682 40.1426 291.381 40.0674 291.061C39.9923 290.741 39.9828 290.41 40.0396 290.086C40.0965 289.763 40.2184 289.454 40.3981 289.179C40.5777 288.904 40.8114 288.668 41.0849 288.486L69.5319 269.512L52.3673 224.442L89.0732 227.467L90.3095 266.197C90.4255 269.725 89.579 273.217 87.8604 276.301C86.1418 279.384 83.6159 281.943 80.553 283.704L50.0447 301.28C49.6753 301.494 49.256 301.607 48.8291 301.607Z" fill="#2F2E41"/>
<path d="M75.6782 311.892C75.0487 311.891 74.4441 311.646 73.9915 311.209C73.539 310.772 73.2736 310.177 73.2512 309.549L71.906 271.818L88.5633 270.942L87.2369 308.944C87.2174 309.546 86.974 310.119 86.5542 310.551C86.1344 310.984 85.5683 311.245 84.9663 311.283L75.8436 311.887C75.7883 311.89 75.7331 311.892 75.6782 311.892Z" fill="#2F2E41"/>
<path d="M93.3212 234.959C89.0832 234.959 74.2805 230.199 69.1416 228.502C68.3729 229.117 64.1495 232.27 59.2197 231.694C56.1779 231.337 53.5 229.618 51.2605 226.583C46.3149 219.88 52.4233 191.136 58.4184 168.203C59.6203 163.568 62.5751 159.578 66.6615 157.073C70.748 154.568 75.6479 153.742 80.3312 154.77C83.7256 155.518 86.8437 157.197 89.3354 159.618C91.827 162.038 93.5934 165.104 94.4361 168.472C95.5648 173.061 94.5938 178.458 93.8848 182.399C93.5515 184.252 93.2882 185.716 93.3782 186.435C93.7262 189.214 95.6592 232.81 94.4163 234.671C94.2839 234.87 93.9011 234.959 93.3212 234.959Z" fill="#36ACCF"/>
<path d="M77.8175 235.036C78.4986 234.53 79.0602 233.881 79.4629 233.134C79.8655 232.388 80.0993 231.562 80.1479 230.715C80.1964 229.869 80.0585 229.022 79.7438 228.234C79.4291 227.447 78.9454 226.738 78.3266 226.157L78.589 173.329L66.1293 175.401L69.7892 226.678C68.8813 227.78 68.41 229.177 68.4646 230.604C68.5192 232.03 69.0959 233.388 70.0855 234.418C71.0751 235.448 72.4087 236.08 73.8338 236.194C75.2588 236.308 76.6763 235.896 77.8175 235.036Z" fill="#FFB8B8"/>
<path d="M80.6993 207.256H67.2788C66.6379 207.254 66.0235 207 65.5682 206.55C65.113 206.099 64.8535 205.488 64.8457 204.848L64.5163 168.515C64.5049 167.259 64.743 166.013 65.2169 164.849C65.6908 163.685 66.391 162.627 67.2771 161.735C68.1632 160.843 69.2176 160.136 70.3793 159.653C71.541 159.171 72.7869 158.924 74.045 158.925C75.3031 158.927 76.5484 159.177 77.7089 159.662C78.8693 160.148 79.922 160.858 80.8059 161.752C81.6898 162.646 82.3875 163.706 82.8585 164.871C83.3296 166.036 83.5647 167.282 83.5502 168.539L83.1321 204.854C83.1226 205.493 82.8624 206.102 82.4074 206.551C81.9524 207.001 81.339 207.253 80.6993 207.256Z" fill="#36ACCF"/>
<path d="M78.0084 150.817C71.9284 150.829 66.1925 146.029 65.1388 140.05C64.7616 137.701 64.9317 135.296 65.6359 133.023C66.4004 130.436 67.7116 128.042 69.4809 126.004C71.2503 123.965 73.4367 122.329 75.8929 121.206C78.349 120.082 81.0178 119.498 83.7192 119.492C86.4207 119.486 89.092 120.058 91.5532 121.17C93.1797 121.905 94.7818 122.961 95.5266 124.581C96.2713 126.202 95.8052 128.466 94.176 129.195C93.1114 129.672 91.7753 129.438 90.8308 130.122C89.4741 131.104 89.8233 133.195 90.4291 134.755C91.0349 136.315 91.7201 138.203 90.7046 139.534C89.7583 140.775 87.8668 140.736 86.3768 140.269C84.8869 139.803 83.4164 139.021 81.863 139.18C79.5973 139.412 77.9692 141.662 77.6678 143.917C77.3665 146.171 78.0759 148.424 78.7763 150.589L78.0084 150.817Z" fill="#2F2E41"/>
<path d="M140.035 324H0.540674C0.397278 324 0.259755 323.943 0.158359 323.842C0.0569633 323.741 0 323.603 0 323.46C0 323.317 0.0569633 323.18 0.158359 323.078C0.259755 322.977 0.397278 322.92 0.540674 322.92H140.035C140.178 322.92 140.315 322.977 140.417 323.078C140.518 323.18 140.575 323.317 140.575 323.46C140.575 323.603 140.518 323.741 140.417 323.842C140.315 323.943 140.178 324 140.035 324Z" fill="#CCCCCC"/>
<path d="M492.079 234.623H145.594C143.229 234.62 140.962 233.68 139.289 232.01C137.617 230.34 136.676 228.076 136.673 225.714V12.361C136.675 10.6307 137.364 8.9717 138.59 7.74811C139.815 6.52452 141.476 5.83622 143.209 5.83423H494.351C496.114 5.83623 497.804 6.53641 499.05 7.78115C500.297 9.0259 500.998 10.7136 501 12.4739V225.714C500.997 228.076 500.057 230.34 498.384 232.01C496.712 233.68 494.444 234.62 492.079 234.623Z" fill="#F2F2F2"/>
<path d="M480.876 223.375H157.962C153.228 223.375 149.377 219.773 149.377 215.347V29.5567C149.377 26.2739 152.231 23.603 155.738 23.603H482.994C486.56 23.603 489.461 26.3179 489.461 29.6548V215.347C489.461 219.773 485.61 223.375 480.876 223.375Z" fill="white"/>
<path d="M500.876 13.4712H136.548V8.93562C136.551 6.56584 137.496 4.29419 139.175 2.61902C140.853 0.943848 143.128 0.00196498 145.502 0H491.922C494.295 0.001945 496.571 0.94382 498.249 2.61899C499.928 4.29417 500.872 6.56583 500.876 8.93562V13.4712Z" fill="#3F3D56"/>
<path d="M152.82 9.06196C154.099 9.06196 155.136 8.02652 155.136 6.74924C155.136 5.47196 154.099 4.43652 152.82 4.43652C151.541 4.43652 150.504 5.47196 150.504 6.74924C150.504 8.02652 151.541 9.06196 152.82 9.06196Z" fill="white"/>
<path d="M161.611 9.06196C162.89 9.06196 163.926 8.02652 163.926 6.74924C163.926 5.47196 162.89 4.43652 161.611 4.43652C160.331 4.43652 159.295 5.47196 159.295 6.74924C159.295 8.02652 160.331 9.06196 161.611 9.06196Z" fill="white"/>
<path d="M170.401 9.06196C171.68 9.06196 172.717 8.02652 172.717 6.74924C172.717 5.47196 171.68 4.43652 170.401 4.43652C169.122 4.43652 168.085 5.47196 168.085 6.74924C168.085 8.02652 169.122 9.06196 170.401 9.06196Z" fill="white"/>
<path d="M311.758 64.2264H248.603C247.662 64.2264 246.759 63.8529 246.093 63.188C245.427 62.5232 245.053 61.6214 245.053 60.6812C245.053 59.7409 245.427 58.8392 246.093 58.1744C246.759 57.5095 247.662 57.136 248.603 57.136H311.758C312.7 57.136 313.603 57.5095 314.269 58.1744C314.934 58.8392 315.308 59.7409 315.308 60.6812C315.308 61.6214 314.934 62.5232 314.269 63.188C313.603 63.8529 312.7 64.2264 311.758 64.2264Z" fill="#CCCCCC"/>
<path d="M390.235 64.2264H327.08C326.138 64.2264 325.235 63.8529 324.569 63.188C323.904 62.5232 323.53 61.6214 323.53 60.6812C323.53 59.7409 323.904 58.8392 324.569 58.1744C325.235 57.5095 326.138 57.136 327.08 57.136H390.235C391.177 57.136 392.08 57.5095 392.745 58.1744C393.411 58.8392 393.785 59.7409 393.785 60.6812C393.785 61.6214 393.411 62.5232 392.745 63.188C392.08 63.8529 391.177 64.2264 390.235 64.2264Z" fill="#CCCCCC"/>
<path d="M390.235 77.6607H280.367C279.426 77.6607 278.523 77.2872 277.857 76.6224C277.191 75.9575 276.817 75.0558 276.817 74.1155C276.817 73.1753 277.191 72.2735 277.857 71.6087C278.523 70.9438 279.426 70.5703 280.367 70.5703H390.235C391.176 70.5703 392.079 70.9438 392.745 71.6087C393.411 72.2735 393.785 73.1753 393.785 74.1155C393.785 75.0558 393.411 75.9575 392.745 76.6224C392.079 77.2872 391.176 77.6607 390.235 77.6607Z" fill="#CCCCCC"/>
<path d="M311.758 50.6051H248.603C247.662 50.6039 246.76 50.2299 246.096 49.5652C245.431 48.9004 245.057 47.9994 245.057 47.0599C245.057 46.1204 245.431 45.2193 246.096 44.5546C246.76 43.8898 247.662 43.5158 248.603 43.5147H311.758C312.225 43.5141 312.687 43.6053 313.118 43.7833C313.549 43.9612 313.941 44.2222 314.271 44.5515C314.601 44.8807 314.863 45.2717 315.042 45.7022C315.221 46.1326 315.313 46.5939 315.313 47.0599C315.313 47.5258 315.221 47.9872 315.042 48.4176C314.863 48.848 314.601 49.239 314.271 49.5683C313.941 49.8975 313.549 50.1586 313.118 50.3365C312.687 50.5144 312.225 50.6056 311.758 50.6051Z" fill="#CCCCCC"/>
<path d="M346.512 50.7918H328.575C327.633 50.7918 326.73 50.4183 326.064 49.7535C325.398 49.0886 325.024 48.1869 325.024 47.2466C325.024 46.3064 325.398 45.4046 326.064 44.7398C326.73 44.0749 327.633 43.7014 328.575 43.7014H346.512C347.454 43.7014 348.357 44.0749 349.022 44.7398C349.688 45.4046 350.062 46.3064 350.062 47.2466C350.062 48.1869 349.688 49.0886 349.022 49.7535C348.357 50.4183 347.454 50.7918 346.512 50.7918Z" fill="#CCCCCC"/>
<path d="M266.541 77.6607H248.603C247.662 77.6596 246.76 77.2855 246.096 76.6208C245.431 75.9561 245.057 75.055 245.057 74.1155C245.057 73.176 245.431 72.2749 246.096 71.6102C246.76 70.9455 247.662 70.5715 248.603 70.5703H266.541C267.007 70.5697 267.469 70.661 267.901 70.8389C268.332 71.0168 268.724 71.2779 269.054 71.6071C269.384 71.9364 269.646 72.3274 269.824 72.7578C270.003 73.1882 270.095 73.6496 270.095 74.1155C270.095 74.5814 270.003 75.0428 269.824 75.4732C269.646 75.9036 269.384 76.2946 269.054 76.6239C268.724 76.9532 268.332 77.2142 267.901 77.3921C267.469 77.57 267.007 77.6613 266.541 77.6607Z" fill="#CCCCCC"/>
<path d="M311.758 190.028H248.603C247.662 190.028 246.759 189.655 246.093 188.99C245.427 188.325 245.053 187.423 245.053 186.483C245.053 185.543 245.427 184.641 246.093 183.976C246.759 183.312 247.662 182.938 248.603 182.938H311.758C312.224 182.938 312.686 183.03 313.117 183.208C313.548 183.386 313.939 183.647 314.269 183.976C314.598 184.306 314.86 184.696 315.038 185.127C315.216 185.557 315.308 186.018 315.308 186.483C315.308 186.949 315.216 187.41 315.038 187.84C314.86 188.27 314.598 188.661 314.269 188.99C313.939 189.319 313.548 189.58 313.117 189.759C312.686 189.937 312.224 190.028 311.758 190.028Z" fill="#CCCCCC"/>
<path d="M390.235 190.028H327.08C326.138 190.028 325.235 189.655 324.569 188.99C323.904 188.325 323.53 187.423 323.53 186.483C323.53 185.543 323.904 184.641 324.569 183.976C325.235 183.312 326.138 182.938 327.08 182.938H390.235C390.701 182.938 391.163 183.03 391.594 183.208C392.024 183.386 392.416 183.647 392.745 183.976C393.075 184.306 393.336 184.696 393.515 185.127C393.693 185.557 393.785 186.018 393.785 186.483C393.785 186.949 393.693 187.41 393.515 187.84C393.336 188.27 393.075 188.661 392.745 188.99C392.416 189.319 392.024 189.58 391.594 189.759C391.163 189.937 390.701 190.028 390.235 190.028Z" fill="#CCCCCC"/>
<path d="M390.235 203.463H280.367C279.426 203.463 278.523 203.089 277.857 202.425C277.191 201.76 276.817 200.858 276.817 199.918C276.817 198.977 277.191 198.076 277.857 197.411C278.523 196.746 279.426 196.373 280.367 196.373H390.235C390.701 196.372 391.164 196.463 391.595 196.641C392.026 196.819 392.418 197.08 392.748 197.409C393.078 197.739 393.34 198.13 393.519 198.56C393.697 198.99 393.789 199.452 393.789 199.918C393.789 200.384 393.697 200.845 393.519 201.275C393.34 201.706 393.078 202.097 392.748 202.426C392.418 202.755 392.026 203.016 391.595 203.194C391.164 203.372 390.701 203.463 390.235 203.463Z" fill="#CCCCCC"/>
<path d="M311.758 176.407H248.603C247.662 176.407 246.759 176.034 246.093 175.369C245.427 174.704 245.053 173.802 245.053 172.862C245.053 171.922 245.427 171.02 246.093 170.355C246.759 169.69 247.662 169.317 248.603 169.317H311.758C312.7 169.317 313.603 169.69 314.269 170.355C314.934 171.02 315.308 171.922 315.308 172.862C315.308 173.802 314.934 174.704 314.269 175.369C313.603 176.034 312.7 176.407 311.758 176.407Z" fill="#CCCCCC"/>
<path d="M346.512 176.594H328.575C327.633 176.594 326.73 176.221 326.064 175.556C325.398 174.891 325.024 173.989 325.024 173.049C325.024 172.109 325.398 171.207 326.064 170.542C326.73 169.877 327.633 169.504 328.575 169.504H346.512C347.454 169.504 348.357 169.877 349.022 170.542C349.688 171.207 350.062 172.109 350.062 173.049C350.062 173.989 349.688 174.891 349.022 175.556C348.357 176.221 347.454 176.594 346.512 176.594Z" fill="#CCCCCC"/>
<path d="M266.541 203.463H248.603C247.662 203.463 246.759 203.089 246.093 202.425C245.427 201.76 245.053 200.858 245.053 199.918C245.053 198.977 245.427 198.076 246.093 197.411C246.759 196.746 247.662 196.373 248.603 196.373H266.541C267.007 196.372 267.469 196.463 267.901 196.641C268.332 196.819 268.724 197.08 269.054 197.409C269.384 197.739 269.646 198.13 269.824 198.56C270.003 198.99 270.095 199.452 270.095 199.918C270.095 200.384 270.003 200.845 269.824 201.275C269.646 201.706 269.384 202.097 269.054 202.426C268.724 202.755 268.332 203.016 267.901 203.194C267.469 203.372 267.007 203.463 266.541 203.463Z" fill="#CCCCCC"/>
<path d="M295.264 151.968C293.924 151.971 292.637 151.445 291.683 150.505L267.942 127.094C267.476 126.634 267.106 126.087 266.854 125.483C266.601 124.88 266.471 124.232 266.471 123.578C266.471 122.924 266.601 122.276 266.854 121.673C267.106 121.069 267.476 120.522 267.942 120.062L291.587 96.7459C292.572 95.7793 293.899 95.2396 295.28 95.2439C296.661 95.2483 297.985 95.7963 298.964 96.7692C299.943 97.7499 300.494 99.0787 300.494 100.464C300.494 101.849 299.943 103.178 298.964 104.159L281.394 121.705C280.846 122.253 280.539 122.995 280.539 123.769C280.539 124.543 280.846 125.285 281.394 125.833L298.868 143.284C299.582 143.995 300.068 144.901 300.265 145.889C300.462 146.876 300.361 147.9 299.975 148.83C299.589 149.76 298.936 150.555 298.097 151.113C297.258 151.672 296.272 151.969 295.264 151.968V151.968Z" fill="#36ACCF"/>
<path d="M333.092 151.968C332.084 151.969 331.098 151.672 330.26 151.113C329.421 150.555 328.767 149.76 328.381 148.83C327.995 147.9 327.894 146.876 328.091 145.889C328.288 144.902 328.774 143.995 329.488 143.284L346.963 125.833C347.51 125.285 347.817 124.543 347.817 123.769C347.817 122.995 347.51 122.253 346.963 121.705L329.393 104.159C328.907 103.674 328.521 103.098 328.258 102.464C327.995 101.83 327.86 101.15 327.86 100.464C327.86 99.7778 327.996 99.0984 328.259 98.4644C328.521 97.8304 328.907 97.2544 329.393 96.7692C330.372 95.7963 331.695 95.2483 333.076 95.2439C334.457 95.2396 335.785 95.7793 336.77 96.746L360.414 120.062C360.88 120.522 361.25 121.069 361.503 121.673C361.755 122.276 361.885 122.924 361.885 123.578C361.885 124.232 361.755 124.88 361.503 125.483C361.25 126.087 360.88 126.634 360.414 127.094L336.674 150.505C335.72 151.445 334.433 151.971 333.092 151.968Z" fill="#36ACCF"/>
</g>
<defs>
<clipPath id="clip0">
<rect width="501" height="324" fill="white"/>
</clipPath>
</defs>
</svg>
